<svg width="32" height="33" viewBox="0 0 32 33" fill="none" xmlns="http://www.w3.org/2000/svg">
<path d="M14.5191 3.11108C20.8777 3.11108 26.0383 8.27166 26.0383 14.6302C26.0383 20.9888 20.8777 26.1494 14.5191 26.1494C8.16058 26.1494 3 20.9888 3 14.6302C3 8.27166 8.16058 3.11108 14.5191 3.11108ZM14.5191 23.5896C19.4685 23.5896 23.4785 19.5796 23.4785 14.6302C23.4785 9.68084 19.4685 5.6709 14.5191 5.6709C9.56975 5.6709 5.55981 9.68084 5.55981 14.6302C5.55981 19.5796 9.56975 23.5896 14.5191 23.5896ZM24.6722 24.3874C25.0626 23.997 25.6957 23.9969 26.0863 24.3873L28.2926 26.5929C28.6833 26.9834 28.6833 27.6167 28.2928 28.0072L27.8962 28.4039C27.5056 28.7944 26.8723 28.7944 26.4818 28.4037L24.2762 26.1973C23.8858 25.8068 23.8859 25.1737 24.2763 24.7833L24.6722 24.3874Z" fill="#D8D6D7"/>
</svg>
