<svg width="33" height="32" viewBox="0 0 33 32" fill="none" xmlns="http://www.w3.org/2000/svg">
<path d="M12.1484 3.99805C12.3931 3.89421 12.6649 3.87233 12.9229 3.93652L13.0176 3.96387C13.237 4.0377 13.4315 4.17269 13.5781 4.35352L13.6855 4.50586C13.7809 4.66565 13.84 4.84541 13.8574 5.03223L13.8604 5.21875C13.8534 5.34283 13.829 5.46539 13.7861 5.58203L13.709 5.75195C12.8493 7.32921 12.3997 9.09727 12.4033 10.8936L12.418 11.4502C12.7093 17.167 17.4631 21.7088 23.2812 21.709L23.8662 21.6943C24.4454 21.6642 25.0102 21.5898 25.5605 21.4717L25.7461 21.4463C25.9327 21.4342 26.1203 21.4628 26.2959 21.5312L26.4658 21.6113C26.6283 21.7039 26.769 21.8316 26.8779 21.9854L26.9316 22.0674C27.0335 22.2367 27.0921 22.4286 27.1016 22.626L27.1025 22.7246C27.0933 22.9892 26.9963 23.2436 26.8271 23.4473L26.8262 23.4463C25.6402 24.9025 24.1451 26.0769 22.4482 26.8818C20.7512 27.6868 18.8958 28.1014 17.0176 28.0986V28.0996C10.0473 28.0996 4.40039 22.4844 4.40039 15.5645C4.40053 10.3564 7.59742 5.88991 12.1484 3.99707V3.99805ZM11.583 6.19434C10.08 7.05304 8.80502 8.25953 7.86621 9.71289L7.67383 10.0234C6.67076 11.6979 6.13972 13.6126 6.1377 15.5645L6.15137 16.1211C6.44272 21.8367 11.1992 26.3789 17.0176 26.3789C18.4555 26.381 19.8801 26.0984 21.208 25.5469L21.6992 25.3281C22.746 24.8313 23.704 24.1669 24.543 23.3662C24.128 23.4077 23.7072 23.4307 23.2812 23.4307C16.3113 23.4304 10.6662 17.8151 10.666 10.8955C10.666 9.23386 10.9907 7.64678 11.583 6.19434Z" fill="#ABABAE" stroke="#ABABAE" stroke-width="0.2"/>
<path d="M20.6926 8.72178C20.7141 8.65682 20.7555 8.60029 20.811 8.56022C20.8665 8.52016 20.9332 8.49859 21.0016 8.49859C21.07 8.49859 21.1367 8.52016 21.1922 8.56022C21.2477 8.60029 21.2891 8.65682 21.3106 8.72178L21.8912 10.4648C22.1507 11.2418 22.7597 11.8508 23.5368 12.1103L25.28 12.6908C25.3449 12.7123 25.4015 12.7538 25.4415 12.8093C25.4816 12.8647 25.5032 12.9314 25.5032 12.9998C25.5032 13.0683 25.4816 13.135 25.4415 13.1904C25.4015 13.2459 25.3449 13.2873 25.28 13.3088L23.5368 13.8894C23.1533 14.0166 22.8049 14.2316 22.5192 14.5173C22.2335 14.803 22.0184 15.1514 21.8912 15.5349L21.3106 17.2779C21.2891 17.3429 21.2477 17.3994 21.1922 17.4395C21.1367 17.4795 21.07 17.5011 21.0016 17.5011C20.9332 17.5011 20.8665 17.4795 20.811 17.4395C20.7555 17.3994 20.7141 17.3429 20.6926 17.2779L20.112 15.5349C19.9847 15.1514 19.7697 14.803 19.484 14.5173C19.1983 14.2316 18.8498 14.0166 18.4664 13.8894L16.7232 13.3088C16.6582 13.2873 16.6017 13.2459 16.5616 13.1904C16.5216 13.135 16.5 13.0683 16.5 12.9998C16.5 12.9314 16.5216 12.8647 16.5616 12.8093C16.6017 12.7538 16.6582 12.7123 16.7232 12.6908L18.4664 12.1103C18.8498 11.9831 19.1983 11.768 19.484 11.4824C19.7697 11.1967 19.9847 10.8482 20.112 10.4648L20.6926 8.72178ZM25.2965 4.14821C25.3113 4.1055 25.339 4.06846 25.3759 4.04225C25.4127 4.01604 25.4568 4.00195 25.502 4.00195C25.5472 4.00195 25.5913 4.01604 25.6281 4.04225C25.665 4.06846 25.6927 4.1055 25.7075 4.14821L26.0945 5.30923C26.2671 5.82823 26.6736 6.23474 27.1926 6.40724L28.3538 6.79425C28.3965 6.80906 28.4335 6.8368 28.4597 6.87363C28.4859 6.91046 28.5 6.95455 28.5 6.99975C28.5 7.04496 28.4859 7.08904 28.4597 7.12587C28.4335 7.1627 28.3965 7.19045 28.3538 7.20526L27.1926 7.59226C26.9371 7.67776 26.7049 7.82145 26.5143 8.01199C26.3237 8.20254 26.1801 8.43473 26.0945 8.69028L25.7075 9.85129C25.6927 9.89401 25.665 9.93104 25.6281 9.95725C25.5913 9.98347 25.5472 9.99755 25.502 9.99755C25.4568 9.99755 25.4127 9.98347 25.3759 9.95725C25.339 9.93104 25.3113 9.89401 25.2965 9.85129L24.9094 8.69028C24.8239 8.43473 24.6802 8.20254 24.4897 8.01199C24.2991 7.82145 24.0669 7.67776 23.8113 7.59226L22.6502 7.20526C22.6075 7.19045 22.5705 7.1627 22.5443 7.12587C22.5181 7.08904 22.504 7.04496 22.504 6.99975C22.504 6.95455 22.5181 6.91046 22.5443 6.87363C22.5705 6.8368 22.6075 6.80906 22.6502 6.79425L23.8113 6.40724C24.3304 6.23474 24.7369 5.82823 24.9094 5.30923L25.2965 4.14821Z" fill="#ABABAE"/>
</svg>
