<svg width="32" height="33" viewBox="0 0 32 33" fill="none" xmlns="http://www.w3.org/2000/svg">
<path d="M16.81 4.41108C16.5839 4.21874 16.2968 4.11313 16 4.11313C15.7032 4.11313 15.4161 4.21874 15.19 4.41108L5.44 12.6991C5.30195 12.8165 5.1911 12.9626 5.11512 13.1272C5.03914 13.2917 4.99986 13.4708 5 13.6521V26.6111C5 26.7437 5.05268 26.8709 5.14645 26.9646C5.24021 27.0584 5.36739 27.1111 5.5 27.1111H10.5C10.6326 27.1111 10.7598 27.0584 10.8536 26.9646C10.9473 26.8709 11 26.7437 11 26.6111V19.6111C11 18.948 11.2634 18.3122 11.7322 17.8433C12.2011 17.3745 12.837 17.1111 13.5 17.1111H18.504C18.8323 17.1111 19.1574 17.1757 19.4607 17.3014C19.764 17.427 20.0396 17.6112 20.2718 17.8433C20.5039 18.0755 20.6881 18.3511 20.8137 18.6544C20.9393 18.9577 21.004 19.2828 21.004 19.6111V26.6111C21.004 26.7437 21.0567 26.8709 21.1504 26.9646C21.2442 27.0584 21.3714 27.1111 21.504 27.1111H26.5C26.6326 27.1111 26.7598 27.0584 26.8536 26.9646C26.9473 26.8709 27 26.7437 27 26.6111V13.6511C27 13.47 26.9606 13.2911 26.8847 13.1267C26.8087 12.9623 26.6979 12.8164 26.56 12.6991L16.81 4.41108ZM13.895 2.88808C14.4826 2.38854 15.2287 2.11426 16 2.11426C16.7713 2.11426 17.5174 2.38854 18.105 2.88808L27.855 11.1751C28.2139 11.4802 28.5021 11.8596 28.6999 12.2871C28.8976 12.7147 29 13.18 29 13.6511V26.6111C29 27.2741 28.7366 27.91 28.2678 28.3788C27.7989 28.8477 27.163 29.1111 26.5 29.1111H21.504C20.841 29.1111 20.2051 28.8477 19.7362 28.3788C19.2674 27.91 19.004 27.2741 19.004 26.6111V19.6111C19.004 19.4785 18.9513 19.3513 18.8576 19.2575C18.7638 19.1638 18.6366 19.1111 18.504 19.1111H13.5C13.3674 19.1111 13.2402 19.1638 13.1464 19.2575C13.0527 19.3513 13 19.4785 13 19.6111V26.6111C13 27.2741 12.7366 27.91 12.2678 28.3788C11.7989 28.8477 11.163 29.1111 10.5 29.1111H5.5C4.83696 29.1111 4.20107 28.8477 3.73223 28.3788C3.26339 27.91 3 27.2741 3 26.6111V13.6511C3.00003 13.18 3.10244 12.7147 3.30014 12.2871C3.49785 11.8596 3.78612 11.4802 4.145 11.1751L13.895 2.88808Z" fill="#D8D6D7"/>
</svg>
