<svg width="33" height="32" viewBox="0 0 33 32" fill="none" xmlns="http://www.w3.org/2000/svg">
<path d="M7.5 10.5C7.5 9.57174 7.86875 8.6815 8.52513 8.02513C9.1815 7.36875 10.0717 7 11 7C11.9283 7 12.8185 7.36875 13.4749 8.02513C14.1313 8.6815 14.5 9.57174 14.5 10.5C14.5 11.4283 14.1313 12.3185 13.4749 12.9749C12.8185 13.6313 11.9283 14 11 14C10.0717 14 9.1815 13.6313 8.52513 12.9749C7.86875 12.3185 7.5 11.4283 7.5 10.5ZM11 5C9.54131 5 8.14236 5.57946 7.11091 6.61091C6.07946 7.64236 5.5 9.04131 5.5 10.5C5.5 11.9587 6.07946 13.3576 7.11091 14.3891C8.14236 15.4205 9.54131 16 11 16C12.4587 16 13.8576 15.4205 14.8891 14.3891C15.9205 13.3576 16.5 11.9587 16.5 10.5C16.5 9.04131 15.9205 7.64236 14.8891 6.61091C13.8576 5.57946 12.4587 5 11 5ZM21.5 12C21.5 11.4696 21.7107 10.9609 22.0858 10.5858C22.4609 10.2107 22.9696 10 23.5 10C24.0304 10 24.5391 10.2107 24.9142 10.5858C25.2893 10.9609 25.5 11.4696 25.5 12C25.5 12.5304 25.2893 13.0391 24.9142 13.4142C24.5391 13.7893 24.0304 14 23.5 14C22.9696 14 22.4609 13.7893 22.0858 13.4142C21.7107 13.0391 21.5 12.5304 21.5 12ZM23.5 8C22.4391 8 21.4217 8.42143 20.6716 9.17157C19.9214 9.92172 19.5 10.9391 19.5 12C19.5 13.0609 19.9214 14.0783 20.6716 14.8284C21.4217 15.5786 22.4391 16 23.5 16C24.5609 16 25.5783 15.5786 26.3284 14.8284C27.0786 14.0783 27.5 13.0609 27.5 12C27.5 10.9391 27.0786 9.92172 26.3284 9.17157C25.5783 8.42143 24.5609 8 23.5 8ZM2.5 21C2.5 20.2044 2.81607 19.4413 3.37868 18.8787C3.94129 18.3161 4.70435 18 5.5 18H16.5C17.2956 18 18.0587 18.3161 18.6213 18.8787C19.1839 19.4413 19.5 20.2044 19.5 21V21.226C19.4977 21.3193 19.491 21.4124 19.48 21.505C19.46 21.678 19.423 21.913 19.35 22.191C19.1569 22.924 18.8171 23.6102 18.351 24.208C17.181 25.71 14.98 27 11 27C7.02 27 4.82 25.71 3.649 24.208C3.18257 23.6103 2.84236 22.9241 2.649 22.191C2.57314 21.8967 2.52428 21.5961 2.503 21.293L2.501 21.226V21.203L2.5 21.195V21ZM4.5 21.178V21.19C4.5 21.2073 4.503 21.2387 4.509 21.284C4.519 21.374 4.54 21.514 4.585 21.688C4.675 22.036 4.858 22.506 5.226 22.979C5.931 23.883 7.48 25 11 25C14.52 25 16.07 23.883 16.774 22.98C17.0723 22.5969 17.29 22.1574 17.414 21.688C17.4566 21.5247 17.4854 21.3581 17.5 21.19L17.501 21.178V21C17.501 20.7348 17.3956 20.4804 17.2081 20.2929C17.0206 20.1054 16.7662 20 16.501 20H5.5C5.23478 20 4.98043 20.1054 4.79289 20.2929C4.60536 20.4804 4.5 20.7348 4.5 21V21.178ZM19.977 24.492C20.907 24.808 22.064 25 23.5 25C26.701 25 28.52 24.047 29.513 22.875C29.996 22.305 30.243 21.727 30.368 21.283C30.4353 21.0449 30.4785 20.8007 30.497 20.554L30.498 20.518L30.499 20.496V20.458C30.4991 20.1353 30.4357 19.8157 30.3123 19.5174C30.1888 19.2192 30.0079 18.9483 29.7797 18.72C29.5515 18.4917 29.2806 18.3107 28.9825 18.1871C28.6843 18.0636 28.3647 18 28.042 18H19.853C20.353 18.559 20.716 19.243 20.888 20H28.042C28.292 20 28.494 20.199 28.5 20.446L28.496 20.49C28.484 20.5744 28.4666 20.6579 28.444 20.74C28.382 20.96 28.254 21.268 27.987 21.583C27.48 22.182 26.299 23 23.5 23C22.335 23 21.451 22.858 20.779 22.65C20.6016 23.2994 20.3315 23.9198 19.977 24.492Z" fill="#ABABAE"/>
</svg>
