<svg width="32" height="33" viewBox="0 0 32 33" fill="none" xmlns="http://www.w3.org/2000/svg">
<g clip-path="url(#clip0_2343_2907)">
<g filter="url(#filter0_d_2343_2907)">
<path d="M12.3281 18.779C13.6174 18.779 14.6614 19.8244 14.6614 21.1124V25.779C14.6614 26.3979 14.4156 26.9914 13.978 27.429C13.5404 27.8665 12.9469 28.1124 12.3281 28.1124H5.00008C4.38124 28.1124 3.78775 27.8665 3.35017 27.429C2.91258 26.9914 2.66675 26.3979 2.66675 25.779V21.1124C2.66675 19.8244 3.71208 18.779 5.00008 18.779H12.3281ZM27.0001 18.779C28.2881 18.779 29.3334 19.8244 29.3334 21.1124V25.779C29.3334 26.3979 29.0876 26.9914 28.65 27.429C28.2124 27.8665 27.6189 28.1124 27.0001 28.1124H19.6721C19.0532 28.1124 18.4598 27.8665 18.0222 27.429C17.5846 26.9914 17.3387 26.3979 17.3387 25.779V21.1124C17.3387 19.8244 18.3827 18.779 19.6721 18.779H27.0001ZM27.0001 4.10571C28.2881 4.10571 29.3334 5.15105 29.3334 6.43905V13.7764C29.3336 14.0829 29.2734 14.3865 29.1562 14.6697C29.039 14.953 28.8672 15.2103 28.6505 15.4272C28.4338 15.644 28.1765 15.816 27.8933 15.9333C27.6101 16.0506 27.3066 16.111 27.0001 16.111H5.00008C4.38124 16.111 3.78775 15.8652 3.35017 15.4276C2.91258 14.99 2.66675 14.3966 2.66675 13.7777V6.43905C2.66677 5.85346 2.88698 5.28929 3.28365 4.85852C3.68033 4.42776 4.22448 4.1619 4.80808 4.11371L5.00008 4.10571H27.0001Z" fill="#F9F9F9"/>
</g>
</g>
<defs>
<filter id="filter0_d_2343_2907" x="-1.33325" y="3.10571" width="34.6667" height="32.0066" filterUnits="userSpaceOnUse" color-interpolation-filters="sRGB">
<feFlood flood-opacity="0" result="BackgroundImageFix"/>
<feColorMatrix in="SourceAlpha" type="matrix" values="0 0 0 0 0 0 0 0 0 0 0 0 0 0 0 0 0 0 127 0" result="hardAlpha"/>
<feOffset dy="3"/>
<feGaussianBlur stdDeviation="2"/>
<feComposite in2="hardAlpha" operator="out"/>
<feColorMatrix type="matrix" values="0 0 0 0 1 0 0 0 0 1 0 0 0 0 1 0 0 0 0.15 0"/>
<feBlend mode="normal" in2="BackgroundImageFix" result="effect1_dropShadow_2343_2907"/>
<feBlend mode="normal" in="SourceGraphic" in2="effect1_dropShadow_2343_2907" result="shape"/>
</filter>
<clipPath id="clip0_2343_2907">
<rect width="32" height="32" fill="white" transform="translate(0 0.111084)"/>
</clipPath>
</defs>
</svg>
