<svg width="24" height="21" viewBox="0 0 24 21" fill="none" xmlns="http://www.w3.org/2000/svg">
<path d="M16.8003 0.900391C20.5532 0.900455 23.7669 3.70955 23.7671 7.37305C23.7671 9.7329 22.7309 11.738 21.3228 13.415L21.0366 13.7461C19.6849 15.2656 17.9915 16.5699 16.3882 17.6855L15.7085 18.1523L12.6167 20.2451H12.6157C12.4339 20.368 12.2199 20.4345 12.0005 20.4346C11.8357 20.4346 11.6733 20.3976 11.5259 20.3271L11.3843 20.2451L8.29248 18.1523C6.6126 17.0141 4.75669 15.6637 3.25732 14.0684L2.9624 13.7461C1.41196 12.0037 0.233887 9.89018 0.233887 7.37305C0.234054 3.70966 3.44695 0.900618 7.19971 0.900391C9.10633 0.900391 10.7851 1.77813 12.0005 2.91992C13.2158 1.7783 14.8925 0.900391 16.8003 0.900391Z" fill="#0B0B0B" stroke="#0B0B0B" stroke-width="0.2"/>
</svg>
