<svg width="34" height="37" viewBox="0 0 34 37" fill="none" xmlns="http://www.w3.org/2000/svg">
<g filter="url(#filter0_d_2343_3512)">
<path d="M14.895 2.88832C15.4826 2.38878 16.2287 2.1145 17 2.1145C17.7713 2.1145 18.5174 2.38878 19.105 2.88832L28.855 11.1753C29.2139 11.4804 29.5021 11.8598 29.6999 12.2874C29.8976 12.7149 30 13.1803 30 13.6513V26.6113C30 27.2744 29.7366 27.9102 29.2678 28.3791C28.7989 28.8479 28.163 29.1113 27.5 29.1113H23.5C22.837 29.1113 22.2011 28.8479 21.7322 28.3791C21.2634 27.9102 21 27.2744 21 26.6113V20.1113C21 19.5824 20.7905 19.0751 20.4174 18.7003C20.0443 18.3255 19.5379 18.1137 19.009 18.1113H14.99C14.4613 18.114 13.9552 18.3258 13.5822 18.7006C13.2093 19.0754 13 19.5826 13 20.1113V26.6113C13 26.9396 12.9353 27.2647 12.8097 27.568C12.6841 27.8713 12.4999 28.1469 12.2678 28.3791C12.0356 28.6112 11.76 28.7954 11.4567 28.921C11.1534 29.0467 10.8283 29.1113 10.5 29.1113H6.5C5.83696 29.1113 5.20107 28.8479 4.73223 28.3791C4.26339 27.9102 4 27.2744 4 26.6113V13.6513C4.00003 13.1803 4.10244 12.7149 4.30014 12.2874C4.49785 11.8598 4.78612 11.4804 5.145 11.1753L14.895 2.88832Z" fill="#F9F9F9"/>
</g>
<defs>
<filter id="filter0_d_2343_3512" x="-3" y="-0.888916" width="40" height="40" filterUnits="userSpaceOnUse" color-interpolation-filters="sRGB">
<feFlood flood-opacity="0" result="BackgroundImageFix"/>
<feColorMatrix in="SourceAlpha" type="matrix" values="0 0 0 0 0 0 0 0 0 0 0 0 0 0 0 0 0 0 127 0" result="hardAlpha"/>
<feOffset dy="3"/>
<feGaussianBlur stdDeviation="2"/>
<feComposite in2="hardAlpha" operator="out"/>
<feColorMatrix type="matrix" values="0 0 0 0 1 0 0 0 0 1 0 0 0 0 1 0 0 0 0.15 0"/>
<feBlend mode="normal" in2="BackgroundImageFix" result="effect1_dropShadow_2343_3512"/>
<feBlend mode="normal" in="SourceGraphic" in2="effect1_dropShadow_2343_3512" result="shape"/>
</filter>
</defs>
</svg>
