<svg width="32" height="33" viewBox="0 0 32 33" fill="none" xmlns="http://www.w3.org/2000/svg">
<path d="M5.33301 24.1112C5.33301 22.6967 5.89491 21.3401 6.8951 20.3399C7.8953 19.3397 9.25185 18.7778 10.6663 18.7778H21.333C22.7475 18.7778 24.104 19.3397 25.1042 20.3399C26.1044 21.3401 26.6663 22.6967 26.6663 24.1112C26.6663 24.8184 26.3854 25.4967 25.8853 25.9968C25.3852 26.4969 24.7069 26.7778 23.9997 26.7778H7.99967C7.29243 26.7778 6.61415 26.4969 6.11406 25.9968C5.61396 25.4967 5.33301 24.8184 5.33301 24.1112Z" stroke="#D8D6D7" stroke-width="2.3" stroke-linejoin="round"/>
<path d="M15.9998 13.4443C18.2089 13.4443 19.9998 11.6535 19.9998 9.44434C19.9998 7.2352 18.2089 5.44434 15.9998 5.44434C13.7906 5.44434 11.9998 7.2352 11.9998 9.44434C11.9998 11.6535 13.7906 13.4443 15.9998 13.4443Z" stroke="#D8D6D7" stroke-width="2.3"/>
</svg>
