<svg width="24" height="21" viewBox="0 0 24 21" fill="none" xmlns="http://www.w3.org/2000/svg">
<path d="M16.8003 0.900391C20.5532 0.900455 23.7669 3.70955 23.7671 7.37305C23.7671 9.71355 22.8305 11.7841 21.5054 13.5547L21.2358 13.9053C19.9566 15.5154 18.332 16.9107 16.7231 18.082L16.0356 18.5703C15.5112 18.9333 14.9824 19.2755 14.4761 19.5635L13.979 19.832C13.3732 20.1409 12.6591 20.4335 12.0005 20.4336C11.3418 20.4336 10.6281 20.1409 10.021 19.832L10.02 19.8311C9.30874 19.456 8.62278 19.0347 7.96631 18.5703L7.27783 18.082C5.78342 16.9944 4.27708 15.7135 3.04443 14.2471L2.76416 13.9053C1.29803 12.0595 0.233887 9.86951 0.233887 7.37305C0.234054 3.70966 3.44695 0.900618 7.19971 0.900391C9.10633 0.900391 10.7851 1.77813 12.0005 2.91992C13.2158 1.7783 14.8925 0.900391 16.8003 0.900391ZM16.8003 3.09961C15.3443 3.09961 13.9689 3.91691 13.0503 5L12.8726 5.21973C12.7699 5.35339 12.6379 5.46156 12.4868 5.53613C12.3356 5.61071 12.1691 5.64936 12.0005 5.64941C11.8318 5.64941 11.6645 5.61075 11.5132 5.53613C11.3999 5.48019 11.2969 5.40576 11.2095 5.31543L11.1274 5.21973C10.2143 4.02931 8.75399 3.09961 7.19971 3.09961C4.47409 3.09983 2.43328 5.10273 2.43311 7.37305C2.43311 9.21397 3.21567 10.9356 4.48682 12.5352L4.72998 12.833C5.97491 14.3139 7.58683 15.6317 9.21826 16.7617L9.70361 17.0898C10.1791 17.4031 10.6243 17.6702 11.02 17.8721L11.3979 18.0498C11.5088 18.0973 11.6051 18.1337 11.687 18.1611C11.8532 18.2167 11.9548 18.2334 12.0005 18.2334C12.0463 18.2333 12.1479 18.2168 12.314 18.1611C12.3959 18.1337 12.4921 18.0974 12.603 18.0498L12.981 17.8711C13.6047 17.5407 14.2068 17.1707 14.7827 16.7627V16.7617L15.4331 16.2998C16.9442 15.1991 18.3993 13.9386 19.5142 12.5352L19.7466 12.2334C20.8797 10.7197 21.5669 9.09879 21.5669 7.37305C21.5667 5.10264 19.5261 3.09967 16.8003 3.09961Z" fill="#0B0B0B" stroke="#0B0B0B" stroke-width="0.2"/>
</svg>
