<svg width="32" height="33" viewBox="0 0 32 33" fill="none" xmlns="http://www.w3.org/2000/svg">
<path d="M10.7959 21.7251C11.1486 21.9734 11.5696 22.1061 12.0009 22.1051C12.4321 22.104 12.8525 21.9691 13.2039 21.7191C13.5599 21.4591 13.8299 21.0991 13.9779 20.6831L14.8719 17.9371C15.1008 17.2485 15.4869 16.6227 15.9996 16.1093C16.5123 15.5958 17.1376 15.2089 17.8259 14.9791L20.6079 14.0791C21.0192 13.9302 21.3734 13.6559 21.6206 13.2951C21.8679 12.9342 21.9956 12.5048 21.9859 12.0675C21.9762 11.6301 21.8295 11.2069 21.5665 10.8573C21.3035 10.5078 20.9374 10.2496 20.5199 10.1191L17.7699 9.22308C17.0809 8.99462 16.4546 8.60869 15.9408 8.09591C15.427 7.58313 15.0397 6.95764 14.8099 6.26908L13.9059 3.49308C13.7603 3.0841 13.4909 2.73067 13.1351 2.48194C12.7793 2.23321 12.3549 2.10156 11.9208 2.1053C11.4867 2.10904 11.0646 2.24799 10.7131 2.50281C10.3617 2.75763 10.0984 3.11566 9.9599 3.52708L9.0459 6.32708C8.81698 6.99709 8.43876 7.60632 7.93983 8.10871C7.44091 8.6111 6.83431 8.99353 6.1659 9.22708L3.3859 10.1211C2.97709 10.267 2.62384 10.5365 2.37519 10.8923C2.12655 11.248 1.99484 11.6724 1.99836 12.1065C2.00188 12.5405 2.14045 12.9627 2.39483 13.3144C2.64921 13.6661 3.00678 13.9298 3.4179 14.0691L6.1659 14.9591C6.85781 15.1892 7.48617 15.5783 8.00056 16.0951C8.51495 16.6119 8.90105 17.2421 9.1279 17.9351L10.0319 20.7171C10.1759 21.1251 10.4439 21.4771 10.7959 21.7251ZM10.9659 6.89508L12.0199 4.14108L12.8999 6.89508C13.2271 7.88116 13.7804 8.77704 14.5155 9.51117C15.2507 10.2453 16.1474 10.7973 17.1339 11.1231L19.9459 12.1831L17.1819 13.0771C16.1964 13.4057 15.3009 13.9594 14.5667 14.6943C13.8324 15.4293 13.2796 16.3252 12.9519 17.3111L11.9059 20.0671L11.0079 17.3111C10.6855 16.3252 10.1376 15.4282 9.4079 14.6911C8.67046 13.9543 7.77229 13.3984 6.7839 13.0671L4.0279 12.0231L6.7999 11.1231C7.7732 10.7861 8.65596 10.2297 9.3799 9.49708C10.0983 8.76147 10.6406 7.87051 10.9659 6.89508ZM23.0699 29.8111C23.2745 29.9549 23.5097 30.0492 23.757 30.0864C24.0043 30.1236 24.2569 30.1028 24.4947 30.0256C24.7326 29.9484 24.9492 29.8169 25.1275 29.6415C25.3058 29.4661 25.4408 29.2516 25.5219 29.0151L26.0179 27.4911C26.1239 27.1751 26.3039 26.8871 26.5379 26.6511C26.7739 26.4111 27.0619 26.2351 27.3779 26.1311L28.9219 25.6271C29.2405 25.5171 29.5163 25.3093 29.7098 25.0334C29.9033 24.7575 30.0048 24.4274 29.9997 24.0904C29.9946 23.7534 29.8832 23.4266 29.6814 23.1566C29.4796 22.8867 29.1977 22.6874 28.8759 22.5871L27.3479 22.0871C27.0316 21.9819 26.7441 21.8047 26.5081 21.5694C26.2721 21.334 26.094 21.0471 25.9879 20.7311L25.4839 19.1851C25.3757 18.8671 25.1701 18.5913 24.8964 18.3966C24.6226 18.202 24.2946 18.0984 23.9587 18.1006C23.6228 18.1029 23.2961 18.2107 23.025 18.4089C22.7538 18.6072 22.5519 18.8857 22.4479 19.2051L21.9539 20.7291C21.8521 21.0427 21.679 21.3286 21.4483 21.5642C21.2175 21.7998 20.9354 21.9788 20.6239 22.0871L19.0779 22.5911C18.7598 22.6989 18.4837 22.9041 18.2887 23.1776C18.0937 23.4511 17.9897 23.779 17.9915 24.1148C17.9933 24.4507 18.1007 24.7775 18.2986 25.0489C18.4964 25.3204 18.7747 25.5226 19.0939 25.6271L20.6199 26.1211C20.9399 26.2291 21.2279 26.4071 21.4639 26.6431C21.7019 26.8811 21.8779 27.1691 21.9799 27.4871L22.4859 29.0351C22.5955 29.348 22.7995 29.6192 23.0699 29.8111ZM21.2439 24.2251L20.8859 24.1071L21.2539 23.9791C21.8603 23.769 22.4103 23.4221 22.8611 22.9654C23.312 22.5086 23.6517 21.9542 23.8539 21.3451L23.9699 20.9891L24.0899 21.3511C24.2938 21.9642 24.6379 22.5213 25.0948 22.9782C25.5517 23.4351 26.1088 23.7792 26.7219 23.9831L27.1119 24.1091L26.7519 24.2291C26.1374 24.4332 25.5792 24.7783 25.1218 25.2367C24.6645 25.6951 24.3207 26.2541 24.1179 26.8691L23.9999 27.2311L23.8839 26.8711C23.6815 26.2543 23.3372 25.6936 22.8787 25.234C22.4201 24.7745 21.8602 24.4289 21.2439 24.2251Z" fill="#D8D6D7"/>
</svg>
