<svg width="32" height="33" viewBox="0 0 32 33" fill="none" xmlns="http://www.w3.org/2000/svg">
<path d="M12.3401 18.7844C13.6281 18.7844 14.6734 19.8284 14.6734 21.1178V25.7817C14.6734 26.4006 14.4276 26.9941 13.99 27.4317C13.5524 27.8692 12.9589 28.1151 12.3401 28.1151H5.00008C4.38147 28.1151 3.78818 27.8694 3.35064 27.4321C2.91309 26.9948 2.6671 26.4017 2.66675 25.7831V21.1191C2.66675 19.8297 3.71208 18.7857 5.00008 18.7857L12.3401 18.7844ZM27.0001 18.7844C28.2881 18.7844 29.3334 19.8284 29.3334 21.1178V25.7817C29.3334 26.4006 29.0876 26.9941 28.65 27.4317C28.2124 27.8692 27.6189 28.1151 27.0001 28.1151H19.6601C19.0412 28.1151 18.4478 27.8692 18.0102 27.4317C17.5726 26.9941 17.3267 26.4006 17.3267 25.7817V21.1178C17.3267 19.8284 18.3721 18.7844 19.6601 18.7844H27.0001ZM12.3401 20.7844H5.00008C4.91168 20.7844 4.82689 20.8195 4.76438 20.882C4.70187 20.9446 4.66675 21.0293 4.66675 21.1178V25.7817C4.66675 25.9671 4.81608 26.1151 5.00008 26.1151H12.3401C12.4285 26.1151 12.5133 26.08 12.5758 26.0175C12.6383 25.9549 12.6734 25.8702 12.6734 25.7817V21.1178C12.6734 21.0293 12.6383 20.9446 12.5758 20.882C12.5133 20.8195 12.4285 20.7844 12.3401 20.7844ZM27.0001 20.7844H19.6601C19.5717 20.7844 19.4869 20.8195 19.4244 20.882C19.3619 20.9446 19.3267 21.0293 19.3267 21.1178V25.7817C19.3267 25.9671 19.4761 26.1151 19.6601 26.1151H27.0001C27.0885 26.1151 27.1733 26.08 27.2358 26.0175C27.2983 25.9549 27.3334 25.8702 27.3334 25.7817V21.1178C27.3334 21.0293 27.2983 20.9446 27.2358 20.882C27.1733 20.8195 27.0885 20.7844 27.0001 20.7844ZM27.0001 4.11108C28.2881 4.11108 29.3334 5.15642 29.3334 6.44442V13.7778C29.3334 14.3966 29.0876 14.9901 28.65 15.4277C28.2124 15.8653 27.6189 16.1111 27.0001 16.1111H5.00008C4.38124 16.1111 3.78775 15.8653 3.35017 15.4277C2.91258 14.9901 2.66675 14.3966 2.66675 13.7778V6.44442C2.66677 5.85883 2.88698 5.29466 3.28365 4.8639C3.68033 4.43313 4.22448 4.16727 4.80808 4.11908L5.00008 4.11108H27.0001ZM27.0001 6.11108H5.00008L4.92408 6.12042C4.85096 6.13754 4.78577 6.17885 4.73906 6.23766C4.69235 6.29646 4.66687 6.36932 4.66675 6.44442V13.7778C4.66675 13.9618 4.81608 14.1111 5.00008 14.1111H27.0001C27.0885 14.1111 27.1733 14.076 27.2358 14.0135C27.2983 13.9509 27.3334 13.8662 27.3334 13.7778V6.44442C27.3334 6.35601 27.2983 6.27123 27.2358 6.20871C27.1733 6.1462 27.0885 6.11108 27.0001 6.11108Z" fill="#D8D6D7"/>
</svg>
