<svg width="32" height="33" viewBox="0 0 32 33" fill="none" xmlns="http://www.w3.org/2000/svg">
<g clip-path="url(#clip0_2352_2152)">
<g filter="url(#filter0_d_2352_2152)">
<path d="M10.7961 21.7251C11.1484 21.9743 11.5695 22.1075 12.001 22.1065C12.4325 22.1054 12.853 21.97 13.2041 21.7191C13.5601 21.4591 13.8301 21.0991 13.9781 20.6831L14.8721 17.9371C15.1021 17.2491 15.4881 16.6231 16.0001 16.1091C16.5134 15.5966 17.1383 15.2098 17.8261 14.9791L20.6081 14.0771C20.9118 13.9682 21.1862 13.7907 21.41 13.5582C21.6338 13.3258 21.8008 13.0448 21.8981 12.7371C21.982 12.4747 22.0128 12.1982 21.9888 11.9237C21.9648 11.6492 21.8863 11.3822 21.7581 11.1384C21.6298 10.8945 21.4543 10.6786 21.2417 10.5033C21.0292 10.3279 20.7839 10.1967 20.5201 10.1171L17.7701 9.22312C17.0813 8.99425 16.4552 8.60817 15.9414 8.09545C15.4277 7.58274 15.0403 6.95746 14.8101 6.26912L13.9061 3.49312C13.7881 3.16234 13.5885 2.86669 13.3258 2.6336C13.0631 2.40051 12.7458 2.23751 12.4033 2.15972C12.0609 2.08194 11.7043 2.09187 11.3667 2.18861C11.0291 2.28535 10.7214 2.46576 10.4721 2.71312C10.241 2.94138 10.0657 3.21996 9.96005 3.52712L9.04605 6.32712C8.81859 6.99771 8.44086 7.60742 7.94171 8.10969C7.44256 8.61196 6.83521 8.99349 6.16605 9.22512L3.38405 10.1211C3.08176 10.2321 2.80869 10.4104 2.58554 10.6426C2.36238 10.8748 2.195 11.1547 2.09605 11.4611C2.00011 11.7688 1.97619 12.0943 2.02613 12.4127C2.07606 12.731 2.19853 13.0336 2.38405 13.2971C2.64005 13.6571 3.00205 13.9271 3.41805 14.0691L6.16605 14.9591C6.85812 15.1889 7.48663 15.5779 8.00106 16.0948C8.51549 16.6116 8.90149 17.242 9.12805 17.9351L10.0321 20.7171C10.1761 21.1251 10.4441 21.4771 10.7961 21.7251ZM23.0701 29.8091C23.3402 30.0017 23.6636 30.1056 23.9954 30.1063C24.3272 30.107 24.651 30.0046 24.9221 29.8131C25.2021 29.6171 25.4123 29.3368 25.5221 29.0131L26.0181 27.4891C26.1223 27.1717 26.2997 26.8833 26.536 26.647C26.7722 26.4108 27.0607 26.2334 27.3781 26.1291L28.9221 25.6251C29.2002 25.531 29.4468 25.3615 29.6343 25.1355C29.8218 24.9095 29.9429 24.6359 29.9841 24.3451C30.0416 23.9673 29.9613 23.5815 29.7579 23.258C29.5545 22.9345 29.2415 22.6949 28.8761 22.5831L27.3481 22.0851C27.0318 21.98 26.7443 21.8027 26.5082 21.5674C26.2722 21.3321 26.0941 21.0451 25.9881 20.7291L25.4841 19.1831C25.3766 18.8674 25.1714 18.5942 24.8981 18.4031C24.5906 18.1817 24.2143 18.0772 23.8367 18.1083C23.4591 18.1395 23.105 18.3043 22.8381 18.5731C22.6605 18.7497 22.527 18.9655 22.4481 19.2031L21.9541 20.7271C21.8518 21.0406 21.6786 21.3262 21.4479 21.5617C21.2172 21.7973 20.9353 21.9764 20.6241 22.0851L19.0781 22.5891C18.7595 22.6962 18.4829 22.9013 18.2879 23.175C18.0928 23.4487 17.9893 23.777 17.9921 24.1131C17.9935 24.449 18.1008 24.7758 18.2986 25.0473C18.4965 25.3187 18.7748 25.5209 19.0941 25.6251L20.6201 26.1191C20.9381 26.2271 21.2281 26.4051 21.4641 26.6411C21.7021 26.8791 21.8781 27.1671 21.9801 27.4851L22.4861 29.0331C22.5956 29.346 22.7997 29.6172 23.0701 29.8091Z" fill="#F9F9F9"/>
</g>
</g>
<defs>
<filter id="filter0_d_2352_2152" x="-1.99927" y="1.10791" width="36.0015" height="35.9983" filterUnits="userSpaceOnUse" color-interpolation-filters="sRGB">
<feFlood flood-opacity="0" result="BackgroundImageFix"/>
<feColorMatrix in="SourceAlpha" type="matrix" values="0 0 0 0 0 0 0 0 0 0 0 0 0 0 0 0 0 0 127 0" result="hardAlpha"/>
<feOffset dy="3"/>
<feGaussianBlur stdDeviation="2"/>
<feComposite in2="hardAlpha" operator="out"/>
<feColorMatrix type="matrix" values="0 0 0 0 1 0 0 0 0 1 0 0 0 0 1 0 0 0 0.15 0"/>
<feBlend mode="normal" in2="BackgroundImageFix" result="effect1_dropShadow_2352_2152"/>
<feBlend mode="normal" in="SourceGraphic" in2="effect1_dropShadow_2352_2152" result="shape"/>
</filter>
<clipPath id="clip0_2352_2152">
<rect width="32" height="32" fill="white" transform="translate(0 0.111084)"/>
</clipPath>
</defs>
</svg>
